
        <svg xmlns="http://www.w3.org/2000/svg" xmlns:xlink="http://www.w3.org/1999/xlink" version="1.1" width="3129.589632829374" height="809.9352051835853" viewBox="0 0 3129.589632829374 809.9352051835853">
			
			<g transform="scale(6.479481641468682) translate(10, 10)">
				<defs id="SvgjsDefs1544"/><g id="SvgjsG1545" featureKey="rootContainer" transform="matrix(1,0,0,1,0,0)" fill="#000"><rect xmlns="http://www.w3.org/2000/svg" width="463" height="105" rx="10" ry="10"/></g><g id="SvgjsG1546" featureKey="nameLeftFeature-0" transform="matrix(1.3254784663458352,0,0,1.3254784663458352,15.016202243255178,17.450667937108626)" fill="#ffffff"><path d="M8.64 13.600000000000001 c0.2 0 0.36 0.16 0.36 0.36 l0 21 l8.64 0 c0.2 0 0.36 0.16 0.36 0.36 l0 4.32 c0 0.2 -0.16 0.36 -0.36 0.36 l-13.56 0 c-0.2 0 -0.32 -0.16 -0.32 -0.36 l0 -25.68 c0 -0.2 0.12 -0.36 0.32 -0.36 l4.56 0 z M6.16 16.04 l0 21.52 c0 0.08 0.08 0.2 0.24 0.2 l9.24 0 c0.32 0 0.32 -0.52 0 -0.52 l-9.04 0 l0 -21.2 c0 -0.28 -0.44 -0.32 -0.44 0 z M37.069 30.759999999999998 l0 -16.8 c0 -0.2 0.16 -0.36 0.36 -0.36 l4.56 0 c0.2 0 0.36 0.16 0.36 0.36 l0 18.08 c0 5.76 -3.16 8.36 -9.12 8.36 c-5.64 0 -9.16 -2.24 -9.16 -8.36 l0 -18.08 c0 -0.2 0.16 -0.36 0.36 -0.36 l4.6 0 c0.2 0 0.36 0.16 0.36 0.36 l0 16.8 c0 3.48 1.96 4.24 3.6 4.24 l0.48 0 c2.48 0 3.6 -1.68 3.6 -4.24 z M26.549 16.16 l0 15.56 c0 3.6 2.44 6.2 6.24 6.2 l1 0 c3.8 0 6.28 -2.72 6.28 -6.2 l0 -15.56 c0 -0.36 -0.48 -0.4 -0.48 0 l0 15.56 c0 3.28 -2.36 5.68 -5.8 5.68 l-1 0 c-3.36 0 -5.76 -2.16 -5.76 -5.68 l0 -15.56 c0 -0.36 -0.48 -0.36 -0.48 0 z M62.818 30.759999999999998 l0 -1.24 c0 -0.2 0.16 -0.36 0.36 -0.36 l4.56 0 c0.2 0 0.36 0.16 0.36 0.36 l0 2.52 c0 5.88 -3.16 8.36 -9.12 8.36 c-5.56 0 -9.2 -2.2 -9.2 -8.36 l0 -10.52 c0 -5.92 3.24 -8.28 9.2 -8.28 c5.64 0 9.12 2.16 9.12 8.28 l0 0.84 c0 0.2 -0.16 0.36 -0.36 0.36 l-4.6 0 c-0.2 0 -0.36 -0.16 -0.36 -0.36 l0 -0.64 c0 -2.2 -1.64 -3.12 -3.6 -3.12 l-0.48 0 c-1.32 0 -2.2 0.36 -2.8 1.16 c-0.56 0.76 -0.76 1.76 -0.76 3.08 l0 7.92 c0 3.48 1.96 4.24 3.56 4.24 l0.48 0 c2.52 0 3.56 -1.68 3.64 -4.24 z M58.897999999999996 15.719999999999999 c-4.28 0 -6.76 1.52 -6.76 6.4 l0 9.64 c0 4.44 2.28 6.08 6.76 6.08 c4.2 0 6.72 -1.52 6.72 -6.12 c0 -0.32 -0.48 -0.32 -0.48 0 c0 4.04 -2.2 5.68 -6.24 5.68 c-3.92 0 -6.32 -1.36 -6.32 -5.64 l0 -9.64 c0 -4.16 1.96 -5.96 6.32 -5.96 c5.68 0 5.88 3.6 5.88 4 c0 0.36 0.56 0.4 0.56 0 c0 -3.32 -3.36 -4.44 -6.44 -4.44 z M80.607 13.84 c0.04 -0.12 0.12 -0.24 0.28 -0.24 l4.96 0 c0.16 0 0.24 0.12 0.28 0.24 l6.92 25.72 c0.04 0.24 -0.12 0.44 -0.36 0.44 l-4.56 0 c-0.12 0 -0.24 -0.08 -0.28 -0.24 l-1.56 -5.6 l-5.84 0 l-1.52 5.6 c-0.04 0.16 -0.12 0.24 -0.28 0.24 l-4.6 0 c-0.24 0 -0.4 -0.2 -0.36 -0.44 z M81.72699999999999 29.2 l3.32 0 l-1.72 -6.04 z M87.887 31.560000000000002 l1.84 6 c0.08 0.24 0.52 0.2 0.4 -0.12 l-6.4 -21.28 c-0.12 -0.52 -0.8 -0.56 -0.92 0 l-6.2 21.28 c-0.12 0.28 0.32 0.4 0.44 0.16 l1.76 -6.04 l9.08 0 z M78.92699999999999 31.04 l4.36 -14.72 l4.44 14.72 l-8.8 0 z M108.396 23.8 c3.04 1.44 7 3.72 7 7.84 c0 1.2 -0.2 3.52 -1.52 5.48 c-1.48 2.2 -3.8 3.28 -7 3.28 c-3.4 0 -7.36 -1.64 -8.6 -5.36 c-0.04 -0.12 0 -0.24 0.12 -0.32 l3.68 -3.16 c0.16 -0.12 0.4 -0.12 0.52 0.08 c0.08 0.2 0.24 0.52 0.44 0.92 c0.6 1.24 2.04 2.48 3.64 2.48 c1.24 0 2.92 -0.68 2.92 -2.6 c0 -1.84 -2.52 -2.88 -4.08 -3.48 c-1.8 -0.72 -3.64 -1.64 -5.2 -3 c-1.64 -1.52 -2.44 -3.2 -2.44 -5.2 c0 -5 4.6 -7.52 8.96 -7.52 c3.44 0 6 1.8 7.68 5.36 c0.08 0.16 0 0.36 -0.12 0.44 l-3.56 2.48 c-0.16 0.08 -0.24 0.08 -0.4 -0.12 c-1.36 -1.96 -2.56 -2.88 -4.16 -2.88 c-0.84 0 -2.8 0.32 -2.8 1.8 c0 1.8 3.32 2.72 4.92 3.48 z M101.116 34.84 c1 2 3.76 3.16 6 3.16 c2.92 0 5.28 -2 5.6 -5.04 c0.4 -3.72 -2.52 -5.32 -5.4 -6.76 l-1.28 -0.56 c-2.96 -1.32 -5.12 -2.32 -5.12 -5.08 c0 -3.04 2.8 -4.44 5.56 -4.44 c2.52 0 3.84 1.48 4.52 2.4 c0.24 0.32 0.64 0.04 0.4 -0.28 c-0.68 -0.84 -2.12 -2.6 -4.92 -2.6 c-3.16 0 -6.04 1.56 -6.04 4.92 c0 3 2.4 4.16 5.44 5.56 l1.24 0.6 c3.96 1.88 5.4 3.64 5.08 6.2 c-0.6 4.08 -3.72 4.6 -5.08 4.6 c-3 0 -5 -1.8 -5.6 -2.92 c-0.2 -0.2 -0.48 0 -0.4 0.24 z"/></g><g id="SvgjsG1547" featureKey="inlineSymbolFeature-0" transform="matrix(0.945985506821849,0,0,0.945985506821849,180.68469426339635,5.100728267555878)" fill="#ffffff"><path xmlns="http://www.w3.org/2000/svg" d="M90.844,56.348l-3.455-0.177c-0.123-0.341-0.263-0.675-0.418-1.004l2.319-2.568c0.535-0.593,0.512-1.501-0.053-2.066  l-3.34-3.339c-0.098-0.098-0.216-0.158-0.331-0.223V19.25c0-1.93-1.57-3.5-3.5-3.5H11.233c-1.93,0-3.5,1.57-3.5,3.5v48.667  c0,1.93,1.57,3.5,3.5,3.5h28.761l-0.582,6.257c-0.025,0.366-0.425,3.576-6.502,3.576c-0.829,0-1.5,0.672-1.5,1.5s0.671,1.5,1.5,1.5  h27.48c0.828,0,1.5-0.672,1.5-1.5s-0.672-1.5-1.5-1.5c-6.077,0-6.477-3.21-6.507-3.64l-0.577-6.193h11.441l1.803,1.803  c0.565,0.565,1.473,0.589,2.065,0.053l2.569-2.318c0.329,0.155,0.663,0.295,1.004,0.418l0.176,3.452  c0.041,0.798,0.699,1.424,1.498,1.424h4.723c0.799,0,1.457-0.626,1.498-1.423l0.178-3.453c0.34-0.123,0.675-0.263,1.003-0.417  l2.567,2.317c0.593,0.536,1.501,0.513,2.065-0.053l3.34-3.339c0.564-0.564,0.588-1.473,0.053-2.065l-2.317-2.569  c0.154-0.328,0.294-0.663,0.417-1.003l3.454-0.178c0.797-0.041,1.423-0.699,1.423-1.498v-4.722  C92.267,57.047,91.641,56.389,90.844,56.348z M10.733,19.25c0-0.276,0.224-0.5,0.5-0.5h70.833c0.275,0,0.5,0.224,0.5,0.5v29.034  l-1.303,1.176c-0.327-0.154-0.662-0.293-1.002-0.417l-0.178-3.454c-0.041-0.797-0.699-1.423-1.498-1.423h-4.723  c-0.799,0-1.457,0.625-1.498,1.422l-0.179,3.455c-0.34,0.123-0.673,0.262-1.001,0.416l-2.568-2.318  c-0.593-0.535-1.5-0.512-2.065,0.053l-3.34,3.339c-0.564,0.565-0.588,1.473-0.054,2.066l2.319,2.57  c-0.154,0.328-0.294,0.662-0.416,1.001l-3.456,0.178c-0.797,0.041-1.423,0.699-1.423,1.498v1.635H10.733V19.25z M40.948,81.25  c1.367-1.648,1.457-3.36,1.456-3.36l0.604-6.473h7.287l0.598,6.383c0.001,0.033,0.088,1.782,1.468,3.45H40.948z M63.159,67.815  c-0.16,0.178-0.254,0.386-0.314,0.602H11.233c-0.276,0-0.5-0.225-0.5-0.5V62.48h49.449v0.087c0,0.799,0.625,1.457,1.423,1.498  l3.455,0.179c0.123,0.339,0.262,0.674,0.416,1.002L63.159,67.815z M89.267,61.143l-3.075,0.158  c-0.654,0.034-1.212,0.489-1.375,1.124c-0.205,0.794-0.525,1.563-0.951,2.287c-0.333,0.564-0.261,1.28,0.179,1.767l2.064,2.288  l-1.324,1.324l-2.288-2.065c-0.487-0.441-1.204-0.51-1.77-0.178c-0.718,0.426-1.485,0.745-2.282,0.949  c-0.636,0.163-1.091,0.721-1.125,1.376l-0.158,3.075h-1.872l-0.157-3.074c-0.033-0.656-0.489-1.214-1.125-1.377  c-0.796-0.204-1.564-0.523-2.284-0.949c-0.565-0.336-1.282-0.264-1.769,0.178l-2.29,2.065l-1.323-1.323l2.064-2.289  c0.439-0.486,0.512-1.202,0.179-1.767c-0.425-0.722-0.744-1.49-0.948-2.285c-0.163-0.636-0.721-1.091-1.376-1.125l-3.077-0.159  v-1.872l3.077-0.158c0.655-0.034,1.213-0.489,1.376-1.125c0.203-0.792,0.522-1.561,0.949-2.285c0.332-0.564,0.26-1.279-0.179-1.766  l-2.065-2.289l1.324-1.324l2.289,2.065c0.487,0.441,1.204,0.513,1.769,0.178c0.716-0.423,1.483-0.743,2.284-0.95  c0.634-0.164,1.088-0.721,1.122-1.375l0.159-3.076h1.873l0.158,3.075c0.034,0.654,0.488,1.211,1.122,1.375  c0.801,0.207,1.57,0.527,2.286,0.95c0.563,0.334,1.28,0.262,1.769-0.178l1.972-1.78c0.149-0.042,0.291-0.101,0.418-0.184  l1.223,1.222l-2.066,2.288c-0.439,0.486-0.512,1.203-0.178,1.769c0.426,0.72,0.745,1.489,0.949,2.285  c0.163,0.636,0.721,1.092,1.376,1.125l3.077,0.157V61.143z M76.225,54.232c-3.294,0-5.974,2.681-5.974,5.975s2.68,5.975,5.974,5.975  s5.974-2.681,5.974-5.975S79.519,54.232,76.225,54.232z M76.225,63.182c-1.64,0-2.974-1.334-2.974-2.975s1.334-2.975,2.974-2.975  s2.974,1.334,2.974,2.975S77.864,63.182,76.225,63.182z M32.837,27.359c-0.604-0.568-1.552-0.541-2.121,0.061l-11.046,11.7  c-0.545,0.578-0.545,1.481,0,2.06l11.046,11.703c0.295,0.313,0.692,0.471,1.091,0.471c0.369,0,0.739-0.136,1.029-0.409  c0.602-0.568,0.63-1.518,0.061-2.121L22.824,40.15l10.074-10.67C33.467,28.877,33.44,27.928,32.837,27.359z M46.621,27.203  c-0.772-0.295-1.641,0.09-1.938,0.863l-8.865,23.099c-0.297,0.773,0.089,1.641,0.863,1.938c0.177,0.067,0.358,0.1,0.537,0.1  c0.603,0,1.172-0.366,1.401-0.963l8.865-23.098C47.78,28.368,47.394,27.5,46.621,27.203z M63.63,39.125L52.584,27.421  c-0.568-0.604-1.518-0.63-2.12-0.062s-0.63,1.518-0.062,2.12l10.074,10.675L50.402,50.824c-0.568,0.602-0.542,1.551,0.061,2.121  c0.29,0.273,0.66,0.409,1.03,0.409c0.398,0,0.796-0.158,1.091-0.471L63.63,41.184C64.176,40.606,64.176,39.703,63.63,39.125z"/></g><g id="SvgjsG1548" featureKey="nameRightFeature-0" transform="matrix(1.325478559429391,0,0,1.325478559429391,262.19425558034624,17.45066417653283)" fill="#ffffff"><path d="M34.469 29.560000000000002 c-0.56 1.16 -1.36 2.04 -2.48 2.56 l3.36 7.4 c0.12 0.24 -0.04 0.48 -0.28 0.48 l-4.92 0 c-0.16 0 -0.24 -0.08 -0.28 -0.2 l-3.12 -6.8 l-2.04 0 l0 6.64 c0 0.2 -0.16 0.36 -0.36 0.36 l-4.6 0 c-0.16 0 -0.28 -0.16 -0.28 -0.36 l0 -25.68 c0 -0.2 0.12 -0.36 0.28 -0.36 l8.32 0 c4.44 0 7.12 2.52 7.12 7.2 l0 5.04 c0 1.4 -0.24 2.72 -0.72 3.72 z M29.949 24.6 l0 -2.6 c0 -2.8 -1.04 -3.08 -4.08 -3.08 l-1.16 0 l0 8.84 l1.16 0 c2.52 0 4 -0.04 4.08 -3.16 z M22.389000000000003 37.56 l0 -6.84 l5.76 0 l3.36 6.92 c0.08 0.2 0.56 0.12 0.44 -0.24 l-3.36 -6.8 c3.12 -0.44 4.2 -2.08 4.2 -5.04 l0 -5 c0 -4.4 -4 -4.76 -5.24 -4.76 l-5.4 0 c-0.08 0 -0.24 0.12 -0.24 0.24 l0 21.52 c0 0.28 0.48 0.28 0.48 0 z M32.309000000000005 20.56 l0 5 c0 4.08 -2.6 4.64 -5.12 4.64 l-4.8 0 l0 -13.88 l5.16 0 c4.32 0 4.76 2.92 4.76 4.24 z M51.698 13.239999999999998 c3.44 0 5.84 0.76 7.36 2.4 c1.2 1.32 1.76 3.2 1.76 5.88 l0 10.52 c0 2.76 -0.56 4.68 -1.76 5.96 c-1.56 1.6 -3.92 2.4 -7.36 2.4 c-3.56 0 -5.88 -0.8 -7.4 -2.4 c-1.16 -1.28 -1.8 -3.2 -1.8 -5.96 l0 -10.52 c0 -2.68 0.64 -4.56 1.8 -5.92 c1.56 -1.6 3.92 -2.36 7.4 -2.36 z M55.498000000000005 30.84 l0 -8 c0 -3.52 -1.88 -4.24 -3.6 -4.24 l-0.48 0 c-2.56 0 -3.56 1.64 -3.56 4.24 l0 8 c0 3.52 1.88 4.28 3.56 4.28 l0.48 0 c2.56 0 3.56 -1.72 3.6 -4.28 z M45.018 21.8 l0 9.92 c0 1.88 0.48 3.44 1.6 4.6 c1.04 1.04 2.64 1.6 4.6 1.6 l1.04 0 c3.76 0 6.2 -2.4 6.2 -6.2 l0 -9.92 c0 -4.08 -2.16 -6.28 -6.2 -6.28 l-1.04 0 c-4.08 0 -6.2 2.2 -6.2 6.28 z M52.258 37.4 l-1.04 0 c-1.88 0 -3.28 -0.48 -4.28 -1.48 s-1.52 -2.4 -1.52 -4.2 l0 -9.92 c0 -3.8 2.04 -5.8 5.8 -5.8 l1.04 0 c3.8 0 5.68 1.96 5.68 5.8 l0 9.92 c0 1.68 -0.52 3.2 -1.6 4.24 c-1.04 0.88 -2.44 1.44 -4.08 1.44 z M81.087 30.759999999999998 l0 -1.24 c0 -0.2 0.16 -0.36 0.36 -0.36 l4.56 0 c0.2 0 0.36 0.16 0.36 0.36 l0 2.52 c0 5.88 -3.16 8.36 -9.12 8.36 c-5.56 0 -9.2 -2.2 -9.2 -8.36 l0 -10.52 c0 -5.92 3.24 -8.28 9.2 -8.28 c5.64 0 9.12 2.16 9.12 8.28 l0 0.84 c0 0.2 -0.16 0.36 -0.36 0.36 l-4.6 0 c-0.2 0 -0.36 -0.16 -0.36 -0.36 l0 -0.64 c0 -2.2 -1.64 -3.12 -3.6 -3.12 l-0.48 0 c-1.32 0 -2.2 0.36 -2.8 1.16 c-0.56 0.76 -0.76 1.76 -0.76 3.08 l0 7.92 c0 3.48 1.96 4.24 3.56 4.24 l0.48 0 c2.52 0 3.56 -1.68 3.64 -4.24 z M77.167 15.719999999999999 c-4.28 0 -6.76 1.52 -6.76 6.4 l0 9.64 c0 4.44 2.28 6.08 6.76 6.08 c4.2 0 6.72 -1.52 6.72 -6.12 c0 -0.32 -0.48 -0.32 -0.48 0 c0 4.04 -2.2 5.68 -6.24 5.68 c-3.92 0 -6.32 -1.36 -6.32 -5.64 l0 -9.64 c0 -4.16 1.96 -5.96 6.32 -5.96 c5.68 0 5.88 3.6 5.88 4 c0 0.36 0.56 0.4 0.56 0 c0 -3.32 -3.36 -4.44 -6.44 -4.44 z M105.596 24 l0 -10.04 c0 -0.2 0.16 -0.36 0.36 -0.36 l4.56 0 c0.2 0 0.36 0.16 0.36 0.36 l0 25.68 c0 0.2 -0.16 0.36 -0.36 0.36 l-4.56 0 c-0.2 0 -0.36 -0.16 -0.36 -0.36 l0 -10.64 l-6.48 0 l0 10.64 c0 0.2 -0.16 0.36 -0.36 0.36 l-4.56 0 c-0.2 0 -0.32 -0.16 -0.32 -0.36 l0 -25.68 c0 -0.2 0.12 -0.36 0.32 -0.36 l4.56 0 c0.2 0 0.36 0.16 0.36 0.36 l0 10.04 l6.48 0 z M96.196 37.52 c0 0.32 0.52 0.28 0.52 0 l0 -10.72 l11.24 0 l0 10.72 c0 0.28 0.44 0.32 0.44 0 l0 -21.52 c0 -0.28 -0.44 -0.36 -0.44 0 l0 10.24 l-11.24 0 l0 -10.24 c0 -0.28 -0.52 -0.28 -0.52 0 l0 21.52 z M124.105 13.84 c0.04 -0.12 0.12 -0.24 0.28 -0.24 l4.96 0 c0.16 0 0.24 0.12 0.28 0.24 l6.92 25.72 c0.04 0.24 -0.12 0.44 -0.36 0.44 l-4.56 0 c-0.12 0 -0.24 -0.08 -0.28 -0.24 l-1.56 -5.6 l-5.84 0 l-1.52 5.6 c-0.04 0.16 -0.12 0.24 -0.28 0.24 l-4.6 0 c-0.24 0 -0.4 -0.2 -0.36 -0.44 z M125.225 29.2 l3.32 0 l-1.72 -6.04 z M131.385 31.560000000000002 l1.84 6 c0.08 0.24 0.52 0.2 0.4 -0.12 l-6.4 -21.28 c-0.12 -0.52 -0.8 -0.56 -0.92 0 l-6.2 21.28 c-0.12 0.28 0.32 0.4 0.44 0.16 l1.76 -6.04 l9.08 0 z M122.425 31.04 l4.36 -14.72 l4.44 14.72 l-8.8 0 z"/></g>
			</g>
		</svg>
	